<?xml version="1.0" encoding="utf-8"?>
<!-- Generator: Adobe Illustrator 19.0.0, SVG Export Plug-In . SVG Version: 6.00 Build 0)  -->
<svg version="1.1" id="Layer_1" xmlns="http://www.w3.org/2000/svg" xmlns:xlink="http://www.w3.org/1999/xlink" x="0px" y="0px"
	 viewBox="0 0 792 612" style="enable-background:new 0 0 792 612;" xml:space="preserve">
<style type="text/css">
	.st0{display:none;}
	.st1{display:inline;fill:#FFFFFF;}
	.st2{display:inline;fill:url(#XMLID_2_);}
	.st3{fill:#FF0000;}
	.st4{fill:url(#XMLID_3_);}
	.st5{display:inline;fill:#FF0000;}
	.st6{display:inline;fill:url(#XMLID_4_);}
	.st7{display:inline;fill:url(#XMLID_5_);}
	.st8{display:none;fill:#FF0000;}
	.st9{display:none;fill:#800000;}
	.st10{display:none;fill:#020202;}
	.st11{font-family:'aAtmospheric';}
	.st12{font-size:14.1602px;}
	.st13{display:inline;}
	.st14{fill:#800000;}
</style>
<g id="XMLID_40_" class="st0">
	<circle id="XMLID_323_" class="st1" cx="396.4" cy="306.3" r="177.6"/>
	
		<linearGradient id="XMLID_2_" gradientUnits="userSpaceOnUse" x1="175.0491" y1="-16076.2412" x2="617.4969" y2="-16076.2412" gradientTransform="matrix(1 0 0 -1 0 -15770)">
		<stop  offset="0" style="stop-color:#FF0000"/>
		<stop  offset="1" style="stop-color:#820000"/>
	</linearGradient>
	<path id="XMLID_496_" class="st2" d="M587.4,276.3c-4.8-31.1-16.4-59.7-35.4-84V150h-41.5c-24.3-19-52.9-30.1-84-34.9
		c0,0,0-0.1,0-0.1l-30.1-30.1l-30,30.1c0,0-0.1,0.1-0.1,0.1c-31.1,4.8-59.7,15.9-84,34.9H241v42.4c-19,24.3-30.6,52.9-35.5,84
		L175,306.5l30.6,30.1c4.8,31.1,16.3,59.7,35.3,84V462h41.3c24.3,18,52.9,30.6,84,35.4c0.2,0,0.3,0.4,0.5,0.4l29.7,29.8L426,498
		c0.2,0,0.3-0.6,0.5-0.7c31.1-4.8,59.7-17.4,84-35.4H552v-41.4c19-24.3,30.5-52.9,35.4-84l30.1-30.1L587.4,276.3z M552.2,323.9
		L552.2,323.9l0,0.3c-3.4,30.1-15.2,57.6-33.2,80.1V428h-24.8c-11.3,7-23.8,16.9-37.3,22.6c-13.5,5.7-28,9.7-43,11.3l-0.1,0.2
		l-0.9,1.1L410,466L397.1,479l-0.7,0.7l-0.1-0.1l0,0l-16.3-16.3l-0.9-1l-0.1-0.1c-15.1-1.7-29.5-5.8-43-11.5
		c-13.5-5.7-26-15.6-37.3-22.6H273v-23.2c0-0.2,0.4-0.3,0.2-0.5c-18-22.5-29.6-50.1-33-80.3l-17-17.1l-0.3-0.3l0.8-0.8l15.8-15.7
		l1-1c0.2-1.9,0.5-3.8,0.7-5.6c0.6-3.7,1.2-7.4,2-11.1c1.2-5.5,2.7-10.8,4.5-16.1c2.1-6.1,4.5-12,7.3-17.8c0.4-0.8,0.8-1.6,1.2-2.5
		c0.8-1.6,1.7-3.2,2.5-4.8c0.9-1.6,1.8-3.2,2.7-4.7c0.9-1.6,1.9-3.1,2.9-4.6c2.9-4.6,5.4-9,8.8-13.2c0.1-0.2-0.2-0.3-0.2-0.5V182
		h25.6c22.5-18,50.1-28.9,80.2-32.3l0.4,0.1l17.2-16.9l17.5,16.6c30.2,3.3,57.8,14.4,80.3,32.4H519v26.2c0,0.2,0,0.3,0.1,0.5
		c18,22.5,29.8,50.1,33.2,80.3l0.9,1l16.5,16.5L552.2,323.9z"/>
</g>
<g id="XMLID_356_">
	<polygon id="XMLID_495_" class="st3" points="381,336.7 380.9,336.7 380.9,336.6 	"/>
	
		<linearGradient id="XMLID_3_" gradientUnits="userSpaceOnUse" x1="384.012" y1="279.169" x2="429.8253" y2="301.3209" gradientTransform="matrix(1 -1.844408e-004 1.844408e-004 1 -5.670624e-002 -0.2764)">
		<stop  offset="5.442321e-002" style="stop-color:#080000"/>
		<stop  offset="0.1151" style="stop-color:#2C0000"/>
		<stop  offset="0.1803" style="stop-color:#4A0000"/>
		<stop  offset="0.249" style="stop-color:#620000"/>
		<stop  offset="0.3216" style="stop-color:#730000"/>
		<stop  offset="0.4011" style="stop-color:#7D0000"/>
		<stop  offset="0.5" style="stop-color:#800000"/>
	</linearGradient>
	<polygon id="XMLID_494_" class="st4" points="489.8,366.3 394.8,366.3 381,336.7 380.9,336.6 385.1,327.7 396.3,303.6 407.6,327.7 
		427.7,327.7 396.3,260.4 418.3,213.1 471.8,327.7 473.7,331.7 	"/>
	<polygon id="XMLID_493_" class="st3" points="418.3,213.1 396.3,260.4 374.7,306.9 364.9,327.7 364.5,328.7 362.7,332.4 
		359.3,339.9 359.1,340.2 359.1,340.2 371.3,366.3 302.8,366.4 320.8,327.7 374.3,213.1 396.3,165.8 	"/>
	<g id="XMLID_486_" class="st0">
		<polygon id="XMLID_492_" class="st5" points="388.8,380.8 385.5,387.9 385.5,387.9 384.7,389.6 378.3,403.4 375.8,408.7 
			367.5,408.7 381.3,380.8 		"/>
		
			<linearGradient id="XMLID_4_" gradientUnits="userSpaceOnUse" x1="388.1609" y1="-16168.3682" x2="390.5451" y2="-16167.3086" gradientTransform="matrix(1 -1.844408e-004 -1.844408e-004 -1 -2.9653 -15770.2764)">
			<stop  offset="4.219662e-002" style="stop-color:#000000"/>
			<stop  offset="0.1353" style="stop-color:#2C0000"/>
			<stop  offset="0.2284" style="stop-color:#510000"/>
			<stop  offset="0.3153" style="stop-color:#6B0000"/>
			<stop  offset="0.3926" style="stop-color:#7B0000"/>
			<stop  offset="0.4527" style="stop-color:#810000"/>
		</linearGradient>
		<polygon id="XMLID_491_" class="st6" points="402.2,408.7 393.9,408.7 393.9,408.7 393.8,408.5 384.7,389.7 384.7,389.6 
			385.5,387.9 385.5,387.9 388.7,380.8 388.8,380.8 		"/>
		
			<linearGradient id="XMLID_5_" gradientUnits="userSpaceOnUse" x1="393.6041" y1="-16179.7148" x2="387.7428" y2="-16176.9316" gradientTransform="matrix(1 -1.844408e-004 -1.844408e-004 -1 -2.9653 -15770.2764)">
			<stop  offset="4.219662e-002" style="stop-color:#000000"/>
			<stop  offset="0.101" style="stop-color:#2C0000"/>
			<stop  offset="0.1599" style="stop-color:#510000"/>
			<stop  offset="0.2148" style="stop-color:#6B0000"/>
			<stop  offset="0.2637" style="stop-color:#7B0000"/>
			<stop  offset="0.3017" style="stop-color:#810000"/>
		</linearGradient>
		<polygon id="XMLID_487_" class="st7" points="393.9,408.7 379.5,408.7 382.7,401.9 390.6,401.9 		"/>
	</g>
	<polygon id="XMLID_485_" class="st8" points="341.3,408.7 317.3,408.7 320.2,401.9 329.6,401.9 323,387.9 311.3,413.2 302.8,413.2 
		318.8,380.9 327.9,380.9 	"/>
	<g id="XMLID_482_" class="st0">
		<path id="XMLID_483_" class="st5" d="M337.2,380.9l0,6.9l11.9,0l0,21l7.7,0l0-21l12.1,0l2.1-6.9L337.2,380.9z"/>
	</g>
	<g id="XMLID_464_" class="st0">
		<path id="XMLID_467_" class="st5" d="M440.6,380.8l0,27.9l7.7,0l0-27.9L440.6,380.8z"/>
	</g>
	<polygon id="XMLID_461_" class="st8" points="451.4,408.7 475.4,408.7 472.5,401.8 463.1,401.8 469.7,387.9 481.4,413.2 
		489.8,413.2 473.9,380.8 464.8,380.8 	"/>
	<polygon id="XMLID_405_" class="st9" points="402.2,408.7 379.5,408.7 382.7,401.9 390.5,401.9 387.9,396.4 384.7,389.6 
		385.5,387.9 385.5,387.9 388.8,380.8 388.8,380.8 	"/>
	<text id="XMLID_375_" transform="matrix(1 -1.800000e-004 1.800000e-004 1 315.7834 425.1113)" class="st10 st11 st12">RESOURCES RAYA</text>
	<g id="XMLID_362_" class="st0">
		<g id="XMLID_364_" class="st13">
			<polygon id="XMLID_373_" class="st14" points="433.4,391.3 431.3,398.2 413.7,398.2 413.7,406.4 413.7,406.4 413.7,408.7 
				406,408.7 406,400.5 406,400.5 406,398.2 403.9,398.2 403.9,391.3 			"/>
		</g>
	</g>
	<polygon id="XMLID_358_" class="st8" points="436.9,380.8 434.8,387.7 403.9,387.7 401.8,380.8 	"/>
</g>
</svg>
